<?xml version="1.0" encoding="UTF-8" standalone="no"?>
<!DOCTYPE svg PUBLIC "-//W3C//DTD SVG 1.1//EN"
 "http://www.w3.org/Graphics/SVG/1.1/DTD/svg11.dtd">
<!-- Generated by graphviz version 2.47.0 (20210316.0004)
 -->
<!-- Title: dependencies Pages: 1 -->
<svg width="2837pt" height="306pt"
 viewBox="0.00 0.00 2837.00 306.00" xmlns="http://www.w3.org/2000/svg" xmlns:xlink="http://www.w3.org/1999/xlink">
<g id="graph0" class="graph" transform="scale(1 1) rotate(0) translate(4 302)">
<title>dependencies</title>
<polygon fill="white" stroke="transparent" points="-4,4 -4,-302 2833,-302 2833,4 -4,4"/>
<text text-anchor="start" x="1393.51" y="-42.4" font-family="Times-12" font-weight="bold" font-size="14.00">Legend</text>
<polygon fill="#ffffb3" stroke="transparent" points="1180.5,-10 1180.5,-30 1200.5,-30 1200.5,-10 1180.5,-10"/>
<text text-anchor="start" x="1204.13" y="-15.4" font-family="Times-12" font-size="14.00"> &#160;Declarations</text>
<polygon fill="#8dd3c7" stroke="transparent" points="1293.5,-10 1293.5,-30 1313.5,-30 1313.5,-10 1293.5,-10"/>
<text text-anchor="start" x="1317.23" y="-15.4" font-family="Times-12" font-size="14.00"> &#160;Module</text>
<polygon fill="#80b1d3" stroke="transparent" points="1379.5,-10 1379.5,-30 1399.5,-30 1399.5,-10 1379.5,-10"/>
<text text-anchor="start" x="1403.28" y="-15.4" font-family="Times-12" font-size="14.00"> &#160;Bootstrap</text>
<polygon fill="#fdb462" stroke="transparent" points="1476.5,-10 1476.5,-30 1496.5,-30 1496.5,-10 1476.5,-10"/>
<text text-anchor="start" x="1500.17" y="-15.4" font-family="Times-12" font-size="14.00"> &#160;Providers</text>
<polygon fill="#fb8072" stroke="transparent" points="1572.5,-10 1572.5,-30 1592.5,-30 1592.5,-10 1572.5,-10"/>
<text text-anchor="start" x="1596.23" y="-15.4" font-family="Times-12" font-size="14.00"> &#160;Exports</text>
<g id="clust1" class="cluster">
<title>cluster_AppModule</title>
<polygon fill="none" stroke="black" stroke-dasharray="1,5" points="561,-146 561,-290 2051,-290 2051,-146 561,-146"/>
</g>
<g id="clust3" class="cluster">
<title>cluster_AppModule_imports</title>
<polygon fill="none" stroke="black" points="569,-154 569,-282 1905,-282 1905,-154 569,-154"/>
</g>
<g id="clust6" class="cluster">
<title>cluster_AppModule_providers</title>
<polygon fill="none" stroke="black" points="1913,-154 1913,-206 2043,-206 2043,-154 1913,-154"/>
</g>
<g id="clust7" class="cluster">
<title>cluster_AuthModule</title>
<polygon fill="none" stroke="black" stroke-dasharray="1,5" points="8,-146 8,-214 553,-214 553,-146 8,-146"/>
</g>
<g id="clust10" class="cluster">
<title>cluster_AuthModule_exports</title>
<polygon fill="none" stroke="black" points="439,-154 439,-206 545,-206 545,-154 439,-154"/>
</g>
<g id="clust12" class="cluster">
<title>cluster_AuthModule_providers</title>
<polygon fill="none" stroke="black" points="16,-154 16,-206 431,-206 431,-154 16,-154"/>
</g>
<g id="clust13" class="cluster">
<title>cluster_CompaniesModule</title>
<polygon fill="none" stroke="black" stroke-dasharray="1,5" points="2059,-222 2059,-290 2405,-290 2405,-222 2059,-222"/>
</g>
<g id="clust16" class="cluster">
<title>cluster_CompaniesModule_exports</title>
<polygon fill="none" stroke="black" points="2257,-230 2257,-282 2397,-282 2397,-230 2257,-230"/>
</g>
<g id="clust18" class="cluster">
<title>cluster_CompaniesModule_providers</title>
<polygon fill="none" stroke="black" points="2067,-230 2067,-282 2249,-282 2249,-230 2067,-230"/>
</g>
<g id="clust19" class="cluster">
<title>cluster_DatabasesModule</title>
<polygon fill="none" stroke="black" stroke-dasharray="1,5" points="398,-70 398,-138 730,-138 730,-70 398,-70"/>
</g>
<g id="clust24" class="cluster">
<title>cluster_DatabasesModule_providers</title>
<polygon fill="none" stroke="black" points="406,-78 406,-130 722,-130 722,-78 406,-78"/>
</g>
<g id="clust25" class="cluster">
<title>cluster_FilesModule</title>
<polygon fill="none" stroke="black" stroke-dasharray="1,5" points="738,-70 738,-138 888,-138 888,-70 738,-70"/>
</g>
<g id="clust30" class="cluster">
<title>cluster_FilesModule_providers</title>
<polygon fill="none" stroke="black" points="746,-78 746,-130 880,-130 880,-78 746,-78"/>
</g>
<g id="clust37" class="cluster">
<title>cluster_JobsModule</title>
<polygon fill="none" stroke="black" stroke-dasharray="1,5" points="896,-70 896,-138 1042,-138 1042,-70 896,-70"/>
</g>
<g id="clust42" class="cluster">
<title>cluster_JobsModule_providers</title>
<polygon fill="none" stroke="black" points="904,-78 904,-130 1034,-130 1034,-78 904,-78"/>
</g>
<g id="clust43" class="cluster">
<title>cluster_MailModule</title>
<polygon fill="none" stroke="black" stroke-dasharray="1,5" points="1050,-70 1050,-138 1198,-138 1198,-70 1050,-70"/>
</g>
<g id="clust48" class="cluster">
<title>cluster_MailModule_providers</title>
<polygon fill="none" stroke="black" points="1058,-78 1058,-130 1190,-130 1190,-78 1058,-78"/>
</g>
<g id="clust49" class="cluster">
<title>cluster_PermissionsModule</title>
<polygon fill="none" stroke="black" stroke-dasharray="1,5" points="1206,-70 1206,-138 1412,-138 1412,-70 1206,-70"/>
</g>
<g id="clust54" class="cluster">
<title>cluster_PermissionsModule_providers</title>
<polygon fill="none" stroke="black" points="1214,-78 1214,-130 1404,-130 1404,-78 1214,-78"/>
</g>
<g id="clust55" class="cluster">
<title>cluster_ResumesModule</title>
<polygon fill="none" stroke="black" stroke-dasharray="1,5" points="1420,-70 1420,-138 1602,-138 1602,-70 1420,-70"/>
</g>
<g id="clust60" class="cluster">
<title>cluster_ResumesModule_providers</title>
<polygon fill="none" stroke="black" points="1428,-78 1428,-130 1594,-130 1594,-78 1428,-78"/>
</g>
<g id="clust61" class="cluster">
<title>cluster_RolesModule</title>
<polygon fill="none" stroke="black" stroke-dasharray="1,5" points="2413,-222 2413,-290 2687,-290 2687,-222 2413,-222"/>
</g>
<g id="clust64" class="cluster">
<title>cluster_RolesModule_exports</title>
<polygon fill="none" stroke="black" points="2569,-230 2569,-282 2679,-282 2679,-230 2569,-230"/>
</g>
<g id="clust66" class="cluster">
<title>cluster_RolesModule_providers</title>
<polygon fill="none" stroke="black" points="2421,-230 2421,-282 2561,-282 2561,-230 2421,-230"/>
</g>
<g id="clust67" class="cluster">
<title>cluster_SubscribersModule</title>
<polygon fill="none" stroke="black" stroke-dasharray="1,5" points="1610,-70 1610,-138 1812,-138 1812,-70 1610,-70"/>
</g>
<g id="clust72" class="cluster">
<title>cluster_SubscribersModule_providers</title>
<polygon fill="none" stroke="black" points="1618,-78 1618,-130 1804,-130 1804,-78 1618,-78"/>
</g>
<g id="clust73" class="cluster">
<title>cluster_UsersModule</title>
<polygon fill="none" stroke="black" stroke-dasharray="1,5" points="2695,-222 2695,-290 2821,-290 2821,-222 2695,-222"/>
</g>
<g id="clust76" class="cluster">
<title>cluster_UsersModule_exports</title>
<polygon fill="none" stroke="black" points="2703,-230 2703,-282 2813,-282 2813,-230 2703,-230"/>
</g>
<!-- AuthModule -->
<g id="node1" class="node">
<title>AuthModule</title>
<polygon fill="#8dd3c7" stroke="black" points="664.55,-274 661.55,-278 640.55,-278 637.55,-274 577.45,-274 577.45,-238 664.55,-238 664.55,-274"/>
<text text-anchor="middle" x="621" y="-251.8" font-family="Times,serif" font-size="14.00">AuthModule</text>
</g>
<!-- AppModule -->
<g id="node13" class="node">
<title>AppModule</title>
<polygon fill="#8dd3c7" stroke="black" points="1996.66,-274 1993.66,-278 1972.66,-278 1969.66,-274 1913.34,-274 1913.34,-238 1996.66,-238 1996.66,-274"/>
<text text-anchor="middle" x="1955" y="-251.8" font-family="Times,serif" font-size="14.00">AppModule</text>
</g>
<!-- AuthModule&#45;&gt;AppModule -->
<g id="edge1" class="edge">
<title>AuthModule&#45;&gt;AppModule</title>
<path fill="none" stroke="black" d="M664.63,-272C664.63,-272 1903.04,-272 1903.04,-272"/>
<polygon fill="black" stroke="black" points="1903.04,-275.5 1913.04,-272 1903.04,-268.5 1903.04,-275.5"/>
</g>
<!-- AuthService  -->
<g id="node15" class="node">
<title>AuthService </title>
<polygon fill="#fb8072" stroke="black" points="536.98,-198 447.02,-198 447.02,-162 536.98,-162 536.98,-198"/>
<text text-anchor="middle" x="492" y="-175.8" font-family="Times,serif" font-size="14.00">AuthService </text>
</g>
<!-- AuthModule&#45;&gt;AuthService  -->
<g id="edge16" class="edge">
<title>AuthModule&#45;&gt;AuthService </title>
<path fill="none" stroke="black" stroke-dasharray="5,2" d="M577.33,-246C539.9,-246 492,-246 492,-246 492,-246 492,-208.03 492,-208.03"/>
<polygon fill="black" stroke="black" points="495.5,-208.03 492,-198.03 488.5,-208.03 495.5,-208.03"/>
</g>
<!-- CompaniesModule -->
<g id="node2" class="node">
<title>CompaniesModule</title>
<polygon fill="#8dd3c7" stroke="black" points="1787.04,-198 1784.04,-202 1763.04,-202 1760.04,-198 1664.96,-198 1664.96,-162 1787.04,-162 1787.04,-198"/>
<text text-anchor="middle" x="1726" y="-175.8" font-family="Times,serif" font-size="14.00">CompaniesModule</text>
</g>
<!-- CompaniesModule&#45;&gt;AppModule -->
<g id="edge2" class="edge">
<title>CompaniesModule&#45;&gt;AppModule</title>
<path fill="none" stroke="black" d="M1756.64,-198.17C1756.64,-217.09 1756.64,-244 1756.64,-244 1756.64,-244 1902.93,-244 1902.93,-244"/>
<polygon fill="black" stroke="black" points="1902.93,-247.5 1912.93,-244 1902.93,-240.5 1902.93,-247.5"/>
</g>
<!-- CompaniesService  -->
<g id="node19" class="node">
<title>CompaniesService </title>
<polygon fill="#fb8072" stroke="black" points="2389.47,-274 2264.53,-274 2264.53,-238 2389.47,-238 2389.47,-274"/>
<text text-anchor="middle" x="2327" y="-251.8" font-family="Times,serif" font-size="14.00">CompaniesService </text>
</g>
<!-- CompaniesModule&#45;&gt;CompaniesService  -->
<g id="edge20" class="edge">
<title>CompaniesModule&#45;&gt;CompaniesService </title>
<path fill="none" stroke="black" stroke-dasharray="5,2" d="M1695.36,-198.04C1695.36,-210.56 1695.36,-225 1695.36,-225 1695.36,-225 2327,-225 2327,-225 2327,-225 2327,-227.97 2327,-227.97"/>
<polygon fill="black" stroke="black" points="2323.5,-227.97 2327,-237.97 2330.5,-227.97 2323.5,-227.97"/>
</g>
<!-- DatabasesModule -->
<g id="node3" class="node">
<title>DatabasesModule</title>
<polygon fill="#8dd3c7" stroke="black" points="803.29,-198 800.29,-202 779.29,-202 776.29,-198 686.71,-198 686.71,-162 803.29,-162 803.29,-198"/>
<text text-anchor="middle" x="745" y="-175.8" font-family="Times,serif" font-size="14.00">DatabasesModule</text>
</g>
<!-- DatabasesModule&#45;&gt;AppModule -->
<g id="edge3" class="edge">
<title>DatabasesModule&#45;&gt;AppModule</title>
<path fill="none" stroke="black" d="M745,-198.24C745,-223.48 745,-266 745,-266 745,-266 1903,-266 1903,-266"/>
<polygon fill="black" stroke="black" points="1903,-269.5 1913,-266 1903,-262.5 1903,-269.5"/>
</g>
<!-- FilesModule -->
<g id="node4" class="node">
<title>FilesModule</title>
<polygon fill="#8dd3c7" stroke="black" points="908.27,-198 905.27,-202 884.27,-202 881.27,-198 821.73,-198 821.73,-162 908.27,-162 908.27,-198"/>
<text text-anchor="middle" x="865" y="-175.8" font-family="Times,serif" font-size="14.00">FilesModule</text>
</g>
<!-- FilesModule&#45;&gt;AppModule -->
<g id="edge4" class="edge">
<title>FilesModule&#45;&gt;AppModule</title>
<path fill="none" stroke="black" d="M865,-198.01C865,-222.42 865,-263 865,-263 865,-263 1903.27,-263 1903.27,-263"/>
<polygon fill="black" stroke="black" points="1903.27,-266.5 1913.27,-263 1903.27,-259.5 1903.27,-266.5"/>
</g>
<!-- HealthModule -->
<g id="node5" class="node">
<title>HealthModule</title>
<polygon fill="#8dd3c7" stroke="black" points="1646.37,-198 1643.37,-202 1622.37,-202 1619.37,-198 1549.63,-198 1549.63,-162 1646.37,-162 1646.37,-198"/>
<text text-anchor="middle" x="1598" y="-175.8" font-family="Times,serif" font-size="14.00">HealthModule</text>
</g>
<!-- HealthModule&#45;&gt;AppModule -->
<g id="edge5" class="edge">
<title>HealthModule&#45;&gt;AppModule</title>
<path fill="none" stroke="black" d="M1598,-198.31C1598,-218.15 1598,-247 1598,-247 1598,-247 1903,-247 1903,-247"/>
<polygon fill="black" stroke="black" points="1903,-250.5 1913,-247 1903,-243.5 1903,-250.5"/>
</g>
<!-- JobsModule -->
<g id="node6" class="node">
<title>JobsModule</title>
<polygon fill="#8dd3c7" stroke="black" points="1011.44,-198 1008.44,-202 987.44,-202 984.44,-198 926.56,-198 926.56,-162 1011.44,-162 1011.44,-198"/>
<text text-anchor="middle" x="969" y="-175.8" font-family="Times,serif" font-size="14.00">JobsModule</text>
</g>
<!-- JobsModule&#45;&gt;AppModule -->
<g id="edge6" class="edge">
<title>JobsModule&#45;&gt;AppModule</title>
<path fill="none" stroke="black" d="M969,-198.38C969,-222.28 969,-261 969,-261 969,-261 1903.26,-261 1903.26,-261"/>
<polygon fill="black" stroke="black" points="1903.26,-264.5 1913.26,-261 1903.26,-257.5 1903.26,-264.5"/>
</g>
<!-- MailModule -->
<g id="node7" class="node">
<title>MailModule</title>
<polygon fill="#8dd3c7" stroke="black" points="1114.99,-198 1111.99,-202 1090.99,-202 1087.99,-198 1029.01,-198 1029.01,-162 1114.99,-162 1114.99,-198"/>
<text text-anchor="middle" x="1072" y="-175.8" font-family="Times,serif" font-size="14.00">MailModule</text>
</g>
<!-- MailModule&#45;&gt;AppModule -->
<g id="edge7" class="edge">
<title>MailModule&#45;&gt;AppModule</title>
<path fill="none" stroke="black" d="M1072,-198.09C1072,-221.13 1072,-258 1072,-258 1072,-258 1903.3,-258 1903.3,-258"/>
<polygon fill="black" stroke="black" points="1903.3,-261.5 1913.3,-258 1903.3,-254.5 1903.3,-261.5"/>
</g>
<!-- PermissionsModule -->
<g id="node8" class="node">
<title>PermissionsModule</title>
<polygon fill="#8dd3c7" stroke="black" points="1260.71,-198 1257.71,-202 1236.71,-202 1233.71,-198 1133.29,-198 1133.29,-162 1260.71,-162 1260.71,-198"/>
<text text-anchor="middle" x="1197" y="-175.8" font-family="Times,serif" font-size="14.00">PermissionsModule</text>
</g>
<!-- PermissionsModule&#45;&gt;AppModule -->
<g id="edge8" class="edge">
<title>PermissionsModule&#45;&gt;AppModule</title>
<path fill="none" stroke="black" d="M1197,-198.16C1197,-220.35 1197,-255 1197,-255 1197,-255 1903.17,-255 1903.17,-255"/>
<polygon fill="black" stroke="black" points="1903.17,-258.5 1913.17,-255 1903.17,-251.5 1903.17,-258.5"/>
</g>
<!-- ResumesModule -->
<g id="node9" class="node">
<title>ResumesModule</title>
<polygon fill="#8dd3c7" stroke="black" points="1389.1,-198 1386.1,-202 1365.1,-202 1362.1,-198 1278.9,-198 1278.9,-162 1389.1,-162 1389.1,-198"/>
<text text-anchor="middle" x="1334" y="-175.8" font-family="Times,serif" font-size="14.00">ResumesModule</text>
</g>
<!-- ResumesModule&#45;&gt;AppModule -->
<g id="edge9" class="edge">
<title>ResumesModule&#45;&gt;AppModule</title>
<path fill="none" stroke="black" d="M1334,-198.17C1334,-219.5 1334,-252 1334,-252 1334,-252 1903.29,-252 1903.29,-252"/>
<polygon fill="black" stroke="black" points="1903.29,-255.5 1913.29,-252 1903.29,-248.5 1903.29,-255.5"/>
</g>
<!-- RolesModule -->
<g id="node10" class="node">
<title>RolesModule</title>
<polygon fill="#8dd3c7" stroke="black" points="1896.94,-198 1893.94,-202 1872.94,-202 1869.94,-198 1805.06,-198 1805.06,-162 1896.94,-162 1896.94,-198"/>
<text text-anchor="middle" x="1851" y="-175.8" font-family="Times,serif" font-size="14.00">RolesModule</text>
</g>
<!-- RolesModule&#45;&gt;AuthModule -->
<g id="edge14" class="edge">
<title>RolesModule&#45;&gt;AuthModule</title>
<path fill="none" stroke="black" d="M1828.14,-198.3C1828.14,-216.27 1828.14,-241 1828.14,-241 1828.14,-241 674.68,-241 674.68,-241"/>
<polygon fill="black" stroke="black" points="674.68,-237.5 664.68,-241 674.68,-244.5 674.68,-237.5"/>
</g>
<!-- RolesModule&#45;&gt;AppModule -->
<g id="edge10" class="edge">
<title>RolesModule&#45;&gt;AppModule</title>
<path fill="none" stroke="black" d="M1897.03,-180C1908.34,-180 1917.28,-180 1917.28,-180 1917.28,-180 1917.28,-227.99 1917.28,-227.99"/>
<polygon fill="black" stroke="black" points="1913.78,-227.99 1917.28,-237.99 1920.78,-227.99 1913.78,-227.99"/>
</g>
<!-- RolesService  -->
<g id="node28" class="node">
<title>RolesService </title>
<polygon fill="#fb8072" stroke="black" points="2670.86,-274 2577.14,-274 2577.14,-238 2670.86,-238 2670.86,-274"/>
<text text-anchor="middle" x="2624" y="-251.8" font-family="Times,serif" font-size="14.00">RolesService </text>
</g>
<!-- RolesModule&#45;&gt;RolesService  -->
<g id="edge29" class="edge">
<title>RolesModule&#45;&gt;RolesService </title>
<path fill="none" stroke="black" stroke-dasharray="5,2" d="M1851,-198.24C1851,-205.43 1851,-212 1851,-212 1851,-212 2624,-212 2624,-212 2624,-212 2624,-227.85 2624,-227.85"/>
<polygon fill="black" stroke="black" points="2620.5,-227.85 2624,-237.85 2627.5,-227.85 2620.5,-227.85"/>
</g>
<!-- SubscribersModule -->
<g id="node11" class="node">
<title>SubscribersModule</title>
<polygon fill="#8dd3c7" stroke="black" points="1531.36,-198 1528.36,-202 1507.36,-202 1504.36,-198 1406.64,-198 1406.64,-162 1531.36,-162 1531.36,-198"/>
<text text-anchor="middle" x="1469" y="-175.8" font-family="Times,serif" font-size="14.00">SubscribersModule</text>
</g>
<!-- SubscribersModule&#45;&gt;AppModule -->
<g id="edge11" class="edge">
<title>SubscribersModule&#45;&gt;AppModule</title>
<path fill="none" stroke="black" d="M1469,-198.03C1469,-218.77 1469,-250 1469,-250 1469,-250 1903.14,-250 1903.14,-250"/>
<polygon fill="black" stroke="black" points="1903.14,-253.5 1913.14,-250 1903.14,-246.5 1903.14,-253.5"/>
</g>
<!-- UsersModule -->
<g id="node12" class="node">
<title>UsersModule</title>
<polygon fill="#8dd3c7" stroke="black" points="668.92,-198 665.92,-202 644.92,-202 641.92,-198 577.08,-198 577.08,-162 668.92,-162 668.92,-198"/>
<text text-anchor="middle" x="623" y="-175.8" font-family="Times,serif" font-size="14.00">UsersModule</text>
</g>
<!-- UsersModule&#45;&gt;AuthModule -->
<g id="edge15" class="edge">
<title>UsersModule&#45;&gt;AuthModule</title>
<path fill="none" stroke="black" d="M606.45,-198.01C606.45,-198.01 606.45,-227.85 606.45,-227.85"/>
<polygon fill="black" stroke="black" points="602.95,-227.85 606.45,-237.85 609.95,-227.85 602.95,-227.85"/>
</g>
<!-- UsersModule&#45;&gt;AppModule -->
<g id="edge12" class="edge">
<title>UsersModule&#45;&gt;AppModule</title>
<path fill="none" stroke="black" d="M668.74,-180C674.14,-180 677.78,-180 677.78,-180 677.78,-180 677.78,-269 677.78,-269 677.78,-269 1903.23,-269 1903.23,-269"/>
<polygon fill="black" stroke="black" points="1903.23,-272.5 1913.23,-269 1903.23,-265.5 1903.23,-272.5"/>
</g>
<!-- UsersService  -->
<g id="node31" class="node">
<title>UsersService </title>
<polygon fill="#fb8072" stroke="black" points="2804.85,-274 2711.15,-274 2711.15,-238 2804.85,-238 2804.85,-274"/>
<text text-anchor="middle" x="2758" y="-251.8" font-family="Times,serif" font-size="14.00">UsersService </text>
</g>
<!-- UsersModule&#45;&gt;UsersService  -->
<g id="edge32" class="edge">
<title>UsersModule&#45;&gt;UsersService </title>
<path fill="none" stroke="black" stroke-dasharray="5,2" d="M635.61,-198.17C635.61,-202.05 635.61,-205 635.61,-205 635.61,-205 2758,-205 2758,-205 2758,-205 2758,-227.88 2758,-227.88"/>
<polygon fill="black" stroke="black" points="2754.5,-227.88 2758,-237.88 2761.5,-227.88 2754.5,-227.88"/>
</g>
<!-- AppService -->
<g id="node14" class="node">
<title>AppService</title>
<ellipse fill="#fdb462" stroke="black" cx="1978" cy="-180" rx="56.74" ry="18"/>
<text text-anchor="middle" x="1978" y="-175.8" font-family="Times,serif" font-size="14.00">AppService</text>
</g>
<!-- AppService&#45;&gt;AppModule -->
<g id="edge13" class="edge">
<title>AppService&#45;&gt;AppModule</title>
<path fill="none" stroke="black" d="M1959.1,-197.25C1959.1,-197.25 1959.1,-227.76 1959.1,-227.76"/>
<polygon fill="black" stroke="black" points="1955.6,-227.76 1959.1,-237.76 1962.6,-227.76 1955.6,-227.76"/>
</g>
<!-- AuthService -->
<g id="node16" class="node">
<title>AuthService</title>
<ellipse fill="#fdb462" stroke="black" cx="215" cy="-180" rx="59.11" ry="18"/>
<text text-anchor="middle" x="215" y="-175.8" font-family="Times,serif" font-size="14.00">AuthService</text>
</g>
<!-- AuthService&#45;&gt;AuthModule -->
<g id="edge17" class="edge">
<title>AuthService&#45;&gt;AuthModule</title>
<path fill="none" stroke="black" d="M215,-198.15C215,-221.76 215,-260 215,-260 215,-260 567.17,-260 567.17,-260"/>
<polygon fill="black" stroke="black" points="567.17,-263.5 577.17,-260 567.17,-256.5 567.17,-263.5"/>
</g>
<!-- JwtStrategy -->
<g id="node17" class="node">
<title>JwtStrategy</title>
<ellipse fill="#fdb462" stroke="black" cx="81" cy="-180" rx="56.76" ry="18"/>
<text text-anchor="middle" x="81" y="-175.8" font-family="Times,serif" font-size="14.00">JwtStrategy</text>
</g>
<!-- JwtStrategy&#45;&gt;AuthModule -->
<g id="edge18" class="edge">
<title>JwtStrategy&#45;&gt;AuthModule</title>
<path fill="none" stroke="black" d="M81,-198.03C81,-223.51 81,-267 81,-267 81,-267 567.27,-267 567.27,-267"/>
<polygon fill="black" stroke="black" points="567.27,-270.5 577.27,-267 567.27,-263.5 567.27,-270.5"/>
</g>
<!-- LocalStrategy -->
<g id="node18" class="node">
<title>LocalStrategy</title>
<ellipse fill="#fdb462" stroke="black" cx="358" cy="-180" rx="65.41" ry="18"/>
<text text-anchor="middle" x="358" y="-175.8" font-family="Times,serif" font-size="14.00">LocalStrategy</text>
</g>
<!-- LocalStrategy&#45;&gt;AuthModule -->
<g id="edge19" class="edge">
<title>LocalStrategy&#45;&gt;AuthModule</title>
<path fill="none" stroke="black" d="M358,-198.04C358,-219.66 358,-253 358,-253 358,-253 567.28,-253 567.28,-253"/>
<polygon fill="black" stroke="black" points="567.28,-256.5 577.28,-253 567.28,-249.5 567.28,-256.5"/>
</g>
<!-- CompaniesService -->
<g id="node20" class="node">
<title>CompaniesService</title>
<ellipse fill="#fdb462" stroke="black" cx="2158" cy="-256" rx="83.38" ry="18"/>
<text text-anchor="middle" x="2158" y="-251.8" font-family="Times,serif" font-size="14.00">CompaniesService</text>
</g>
<!-- CompaniesService&#45;&gt;CompaniesModule -->
<g id="edge21" class="edge">
<title>CompaniesService&#45;&gt;CompaniesModule</title>
<path fill="none" stroke="black" d="M2158,-237.81C2158,-234.46 2158,-232 2158,-232 2158,-232 1726,-232 1726,-232 1726,-232 1726,-208.19 1726,-208.19"/>
<polygon fill="black" stroke="black" points="1729.5,-208.19 1726,-198.19 1722.5,-208.19 1729.5,-208.19"/>
</g>
<!-- DatabasesService -->
<g id="node21" class="node">
<title>DatabasesService</title>
<ellipse fill="#fdb462" stroke="black" cx="635" cy="-104" rx="79.27" ry="18"/>
<text text-anchor="middle" x="635" y="-99.8" font-family="Times,serif" font-size="14.00">DatabasesService</text>
</g>
<!-- DatabasesService&#45;&gt;DatabasesModule -->
<g id="edge22" class="edge">
<title>DatabasesService&#45;&gt;DatabasesModule</title>
<path fill="none" stroke="black" d="M705.04,-112.42C705.04,-112.42 705.04,-151.73 705.04,-151.73"/>
<polygon fill="black" stroke="black" points="701.54,-151.73 705.04,-161.73 708.54,-151.73 701.54,-151.73"/>
</g>
<!-- UsersService -->
<g id="node22" class="node">
<title>UsersService</title>
<ellipse fill="#fdb462" stroke="black" cx="476" cy="-104" rx="61.95" ry="18"/>
<text text-anchor="middle" x="476" y="-99.8" font-family="Times,serif" font-size="14.00">UsersService</text>
</g>
<!-- UsersService&#45;&gt;DatabasesModule -->
<g id="edge23" class="edge">
<title>UsersService&#45;&gt;DatabasesModule</title>
<path fill="none" stroke="black" d="M492,-121.5C492,-128.97 492,-136 492,-136 492,-136 695.95,-136 695.95,-136 695.95,-136 695.95,-151.85 695.95,-151.85"/>
<polygon fill="black" stroke="black" points="692.45,-151.85 695.95,-161.85 699.45,-151.85 692.45,-151.85"/>
</g>
<!-- UsersService&#45;&gt;UsersModule -->
<g id="edge33" class="edge">
<title>UsersService&#45;&gt;UsersModule</title>
<path fill="none" stroke="black" d="M538.22,-104C543.53,-104 546.92,-104 546.92,-104 546.92,-104 546.92,-180 546.92,-180 546.92,-180 566.99,-180 566.99,-180"/>
<polygon fill="black" stroke="black" points="566.99,-183.5 576.99,-180 566.99,-176.5 566.99,-183.5"/>
</g>
<!-- FilesService -->
<g id="node23" class="node">
<title>FilesService</title>
<ellipse fill="#fdb462" stroke="black" cx="813" cy="-104" rx="58.54" ry="18"/>
<text text-anchor="middle" x="813" y="-99.8" font-family="Times,serif" font-size="14.00">FilesService</text>
</g>
<!-- FilesService&#45;&gt;FilesModule -->
<g id="edge24" class="edge">
<title>FilesService&#45;&gt;FilesModule</title>
<path fill="none" stroke="black" d="M846.69,-119.02C846.69,-119.02 846.69,-151.8 846.69,-151.8"/>
<polygon fill="black" stroke="black" points="843.19,-151.8 846.69,-161.8 850.19,-151.8 843.19,-151.8"/>
</g>
<!-- JobsService -->
<g id="node24" class="node">
<title>JobsService</title>
<ellipse fill="#fdb462" stroke="black" cx="969" cy="-104" rx="57.32" ry="18"/>
<text text-anchor="middle" x="969" y="-99.8" font-family="Times,serif" font-size="14.00">JobsService</text>
</g>
<!-- JobsService&#45;&gt;JobsModule -->
<g id="edge25" class="edge">
<title>JobsService&#45;&gt;JobsModule</title>
<path fill="none" stroke="black" d="M969,-122.01C969,-122.01 969,-151.85 969,-151.85"/>
<polygon fill="black" stroke="black" points="965.5,-151.85 969,-161.85 972.5,-151.85 965.5,-151.85"/>
</g>
<!-- MailService -->
<g id="node25" class="node">
<title>MailService</title>
<ellipse fill="#fdb462" stroke="black" cx="1124" cy="-104" rx="58.46" ry="18"/>
<text text-anchor="middle" x="1124" y="-99.8" font-family="Times,serif" font-size="14.00">MailService</text>
</g>
<!-- MailService&#45;&gt;MailModule -->
<g id="edge26" class="edge">
<title>MailService&#45;&gt;MailModule</title>
<path fill="none" stroke="black" d="M1090.38,-119.02C1090.38,-119.02 1090.38,-151.8 1090.38,-151.8"/>
<polygon fill="black" stroke="black" points="1086.88,-151.8 1090.38,-161.8 1093.88,-151.8 1086.88,-151.8"/>
</g>
<!-- PermissionsService -->
<g id="node26" class="node">
<title>PermissionsService</title>
<ellipse fill="#fdb462" stroke="black" cx="1309" cy="-104" rx="86.83" ry="18"/>
<text text-anchor="middle" x="1309" y="-99.8" font-family="Times,serif" font-size="14.00">PermissionsService</text>
</g>
<!-- PermissionsService&#45;&gt;PermissionsModule -->
<g id="edge27" class="edge">
<title>PermissionsService&#45;&gt;PermissionsModule</title>
<path fill="none" stroke="black" d="M1241.47,-115.54C1241.47,-115.54 1241.47,-151.83 1241.47,-151.83"/>
<polygon fill="black" stroke="black" points="1237.97,-151.83 1241.47,-161.83 1244.97,-151.83 1237.97,-151.83"/>
</g>
<!-- ResumesService -->
<g id="node27" class="node">
<title>ResumesService</title>
<ellipse fill="#fdb462" stroke="black" cx="1511" cy="-104" rx="74.71" ry="18"/>
<text text-anchor="middle" x="1511" y="-99.8" font-family="Times,serif" font-size="14.00">ResumesService</text>
</g>
<!-- ResumesService&#45;&gt;ResumesModule -->
<g id="edge28" class="edge">
<title>ResumesService&#45;&gt;ResumesModule</title>
<path fill="none" stroke="black" d="M1435.88,-104C1416.57,-104 1401.12,-104 1401.12,-104 1401.12,-104 1401.12,-180 1401.12,-180 1401.12,-180 1399.12,-180 1399.12,-180"/>
<polygon fill="black" stroke="black" points="1399.12,-176.5 1389.12,-180 1399.12,-183.5 1399.12,-176.5"/>
</g>
<!-- RolesService -->
<g id="node29" class="node">
<title>RolesService</title>
<ellipse fill="#fdb462" stroke="black" cx="2491" cy="-256" rx="61.97" ry="18"/>
<text text-anchor="middle" x="2491" y="-251.8" font-family="Times,serif" font-size="14.00">RolesService</text>
</g>
<!-- RolesService&#45;&gt;RolesModule -->
<g id="edge30" class="edge">
<title>RolesService&#45;&gt;RolesModule</title>
<path fill="none" stroke="black" d="M2491,-237.89C2491,-228.1 2491,-218 2491,-218 2491,-218 1873.86,-218 1873.86,-218 1873.86,-218 1873.86,-208.11 1873.86,-208.11"/>
<polygon fill="black" stroke="black" points="1877.36,-208.11 1873.86,-198.11 1870.36,-208.11 1877.36,-208.11"/>
</g>
<!-- SubscribersService -->
<g id="node30" class="node">
<title>SubscribersService</title>
<ellipse fill="#fdb462" stroke="black" cx="1711" cy="-104" rx="85.09" ry="18"/>
<text text-anchor="middle" x="1711" y="-99.8" font-family="Times,serif" font-size="14.00">SubscribersService</text>
</g>
<!-- SubscribersService&#45;&gt;SubscribersModule -->
<g id="edge31" class="edge">
<title>SubscribersService&#45;&gt;SubscribersModule</title>
<path fill="none" stroke="black" d="M1636.19,-112.68C1636.19,-125.75 1636.19,-149 1636.19,-149 1636.19,-149 1483.79,-149 1483.79,-149 1483.79,-149 1483.79,-151.97 1483.79,-151.97"/>
<polygon fill="black" stroke="black" points="1480.29,-151.97 1483.79,-161.97 1487.29,-151.97 1480.29,-151.97"/>
</g>
</g>
</svg>
